<svg width="30" height="30" viewBox="0 0 30 30" fill="none" xmlns="http://www.w3.org/2000/svg">
<path d="M15 6.25C15.0015 5.75004 14.903 5.25483 14.7102 4.7935C14.5175 4.33217 14.2345 3.91403 13.8778 3.56368C13.5212 3.21333 13.098 2.93784 12.6333 2.75342C12.1686 2.56899 11.6717 2.47935 11.1719 2.48977C10.672 2.50019 10.1793 2.61045 9.72267 2.81408C9.26606 3.01772 8.85477 3.3106 8.513 3.67551C8.17124 4.04042 7.90589 4.46998 7.73257 4.93894C7.55924 5.4079 7.48145 5.90679 7.50375 6.40625C6.769 6.59517 6.08688 6.94881 5.50904 7.44039C4.9312 7.93197 4.4728 8.54859 4.16856 9.24356C3.86431 9.93853 3.7222 10.6936 3.75299 11.4516C3.78377 12.2097 3.98665 12.9507 4.34625 13.6188C3.71398 14.1324 3.21678 14.7928 2.89793 15.5424C2.57907 16.2921 2.4482 17.1082 2.51671 17.92C2.58521 18.7317 2.85102 19.5144 3.29101 20.2C3.73099 20.8856 4.33183 21.4533 5.04125 21.8538C4.95365 22.5315 5.00593 23.2201 5.19486 23.8769C5.38379 24.5337 5.70537 25.1448 6.13973 25.6724C6.57409 26.2001 7.11201 26.6331 7.72028 26.9447C8.32854 27.2563 8.99422 27.4399 9.67622 27.4842C10.3582 27.5284 11.0421 27.4324 11.6855 27.202C12.3289 26.9716 12.9183 26.6118 13.4172 26.1447C13.9161 25.6776 14.314 25.1132 14.5862 24.4863C14.8584 23.8595 14.9993 23.1834 15 22.5V6.25Z" stroke="#FB7185" stroke-width="2" stroke-linecap="round" stroke-linejoin="round"/>
<path d="M11.25 16.25C12.2994 15.8808 13.2159 15.2087 13.8833 14.3188C14.5508 13.4288 14.9394 12.3608 15 11.25" stroke="#FB7185" stroke-width="2" stroke-linecap="round" stroke-linejoin="round"/>
<path d="M7.50375 6.40625C7.52846 7.01092 7.69916 7.60062 8.00125 8.125" stroke="#FB7185" stroke-width="2" stroke-linecap="round" stroke-linejoin="round"/>
<path d="M4.34625 13.62C4.57493 13.4338 4.81963 13.2681 5.0775 13.125" stroke="#FB7185" stroke-width="2" stroke-linecap="round" stroke-linejoin="round"/>
<path d="M7.5 22.5C6.63854 22.5004 5.79159 22.2782 5.04125 21.855" stroke="#FB7185" stroke-width="2" stroke-linecap="round" stroke-linejoin="round"/>
<path d="M15 16.25H20" stroke="#FB7185" stroke-width="2" stroke-linecap="round" stroke-linejoin="round"/>
<path d="M15 22.5H22.5C23.163 22.5 23.7989 22.7634 24.2678 23.2322C24.7366 23.7011 25 24.337 25 25V26.25" stroke="#FB7185" stroke-width="2" stroke-linecap="round" stroke-linejoin="round"/>
<path d="M15 10H25" stroke="#FB7185" stroke-width="2" stroke-linecap="round" stroke-linejoin="round"/>
<path d="M20 10V6.25C20 5.58696 20.2634 4.95107 20.7322 4.48223C21.2011 4.01339 21.837 3.75 22.5 3.75" stroke="#FB7185" stroke-width="2" stroke-linecap="round" stroke-linejoin="round"/>
<path d="M20 16.875C20.3452 16.875 20.625 16.5952 20.625 16.25C20.625 15.9048 20.3452 15.625 20 15.625C19.6548 15.625 19.375 15.9048 19.375 16.25C19.375 16.5952 19.6548 16.875 20 16.875Z" stroke="#FB7185" stroke-width="2" stroke-linecap="round" stroke-linejoin="round"/>
<path d="M22.5 4.375C22.8452 4.375 23.125 4.09518 23.125 3.75C23.125 3.40482 22.8452 3.125 22.5 3.125C22.1548 3.125 21.875 3.40482 21.875 3.75C21.875 4.09518 22.1548 4.375 22.5 4.375Z" stroke="#FB7185" stroke-width="2" stroke-linecap="round" stroke-linejoin="round"/>
<path d="M25 26.875C25.3452 26.875 25.625 26.5952 25.625 26.25C25.625 25.9048 25.3452 25.625 25 25.625C24.6548 25.625 24.375 25.9048 24.375 26.25C24.375 26.5952 24.6548 26.875 25 26.875Z" stroke="#FB7185" stroke-width="2" stroke-linecap="round" stroke-linejoin="round"/>
<path d="M25 10.625C25.3452 10.625 25.625 10.3452 25.625 10C25.625 9.65482 25.3452 9.375 25 9.375C24.6548 9.375 24.375 9.65482 24.375 10C24.375 10.3452 24.6548 10.625 25 10.625Z" stroke="#FB7185" stroke-width="2" stroke-linecap="round" stroke-linejoin="round"/>
</svg>
