<svg width="141" height="56" viewBox="0 0 141 56" fill="none" xmlns="http://www.w3.org/2000/svg">
<path d="M36 19.25C36.0015 18.75 35.903 18.2548 35.7102 17.7935C35.5175 17.3322 35.2345 16.914 34.8778 16.5637C34.5212 16.2133 34.098 15.9378 33.6333 15.7534C33.1686 15.569 32.6717 15.4793 32.1719 15.4898C31.672 15.5002 31.1793 15.6105 30.7227 15.8141C30.2661 16.0177 29.8548 16.3106 29.513 16.6755C29.1712 17.0404 28.9059 17.47 28.7326 17.9389C28.5592 18.4079 28.4814 18.9068 28.5038 19.4063C27.769 19.5952 27.0869 19.9488 26.509 20.4404C25.9312 20.932 25.4728 21.5486 25.1686 22.2436C24.8643 22.9385 24.7222 23.6936 24.753 24.4516C24.7838 25.2097 24.9867 25.9507 25.3463 26.6188C24.714 27.1324 24.2168 27.7928 23.8979 28.5424C23.5791 29.2921 23.4482 30.1082 23.5167 30.92C23.5852 31.7317 23.851 32.5144 24.291 33.2C24.731 33.8856 25.3318 34.4533 26.0413 34.8538C25.9536 35.5315 26.0059 36.2201 26.1949 36.8769C26.3838 37.5337 26.7054 38.1448 27.1397 38.6724C27.5741 39.2001 28.112 39.6331 28.7203 39.9447C29.3285 40.2563 29.9942 40.4399 30.6762 40.4842C31.3582 40.5284 32.0421 40.4324 32.6855 40.202C33.3289 39.9716 33.9183 39.6118 34.4172 39.1447C34.9161 38.6776 35.314 38.1132 35.5862 37.4863C35.8584 36.8595 35.9993 36.1834 36 35.5V19.25Z" stroke="#FB7185" stroke-width="2" stroke-linecap="round" stroke-linejoin="round"/>
<path d="M32.25 29.25C33.2994 28.8808 34.2159 28.2087 34.8833 27.3188C35.5508 26.4288 35.9394 25.3608 36 24.25" stroke="#FB7185" stroke-width="2" stroke-linecap="round" stroke-linejoin="round"/>
<path d="M28.5037 19.4062C28.5285 20.0109 28.6992 20.6006 29.0012 21.125" stroke="#FB7185" stroke-width="2" stroke-linecap="round" stroke-linejoin="round"/>
<path d="M25.3463 26.62C25.5749 26.4338 25.8196 26.2681 26.0775 26.125" stroke="#FB7185" stroke-width="2" stroke-linecap="round" stroke-linejoin="round"/>
<path d="M28.5 35.5C27.6385 35.5004 26.7916 35.2782 26.0413 34.855" stroke="#FB7185" stroke-width="2" stroke-linecap="round" stroke-linejoin="round"/>
<path d="M36 29.25H41" stroke="#FB7185" stroke-width="2" stroke-linecap="round" stroke-linejoin="round"/>
<path d="M36 35.5H43.5C44.163 35.5 44.7989 35.7634 45.2678 36.2322C45.7366 36.7011 46 37.337 46 38V39.25" stroke="#FB7185" stroke-width="2" stroke-linecap="round" stroke-linejoin="round"/>
<path d="M36 23H46" stroke="#FB7185" stroke-width="2" stroke-linecap="round" stroke-linejoin="round"/>
<path d="M41 23V19.25C41 18.587 41.2634 17.9511 41.7322 17.4822C42.2011 17.0134 42.837 16.75 43.5 16.75" stroke="#FB7185" stroke-width="2" stroke-linecap="round" stroke-linejoin="round"/>
<path d="M41 29.875C41.3452 29.875 41.625 29.5952 41.625 29.25C41.625 28.9048 41.3452 28.625 41 28.625C40.6548 28.625 40.375 28.9048 40.375 29.25C40.375 29.5952 40.6548 29.875 41 29.875Z" stroke="#FB7185" stroke-width="2" stroke-linecap="round" stroke-linejoin="round"/>
<path d="M43.5 17.375C43.8452 17.375 44.125 17.0952 44.125 16.75C44.125 16.4048 43.8452 16.125 43.5 16.125C43.1548 16.125 42.875 16.4048 42.875 16.75C42.875 17.0952 43.1548 17.375 43.5 17.375Z" stroke="#FB7185" stroke-width="2" stroke-linecap="round" stroke-linejoin="round"/>
<path d="M46 39.875C46.3452 39.875 46.625 39.5952 46.625 39.25C46.625 38.9048 46.3452 38.625 46 38.625C45.6548 38.625 45.375 38.9048 45.375 39.25C45.375 39.5952 45.6548 39.875 46 39.875Z" stroke="#FB7185" stroke-width="2" stroke-linecap="round" stroke-linejoin="round"/>
<path d="M46 23.625C46.3452 23.625 46.625 23.3452 46.625 23C46.625 22.6548 46.3452 22.375 46 22.375C45.6548 22.375 45.375 22.6548 45.375 23C45.375 23.3452 45.6548 23.625 46 23.625Z" stroke="#FB7185" stroke-width="2" stroke-linecap="round" stroke-linejoin="round"/>
<path d="M64.047 31.325C63.5617 31.5937 62.8033 31.728 61.772 31.728C60.29 31.728 59.107 31.2773 58.223 30.376C57.3477 29.4573 56.91 28.2483 56.91 26.749C56.91 25.267 57.3563 24.0667 58.249 23.148C59.1417 22.2293 60.316 21.77 61.772 21.77C62.8293 21.77 63.5877 21.887 64.047 22.121L63.943 23.447C63.3537 23.213 62.63 23.096 61.772 23.096C60.7233 23.096 59.887 23.434 59.263 24.11C58.639 24.786 58.327 25.6657 58.327 26.749C58.327 27.8757 58.6303 28.7597 59.237 29.401C59.8523 30.0683 60.6973 30.402 61.772 30.402C62.682 30.402 63.4057 30.259 63.943 29.973L64.047 31.325ZM69.4363 25.579C68.847 25.579 68.379 25.813 68.0323 26.281C67.703 26.7403 67.5383 27.334 67.5383 28.062C67.5383 28.79 67.703 29.3837 68.0323 29.843C68.379 30.311 68.847 30.545 69.4363 30.545C70.0256 30.545 70.4893 30.311 70.8273 29.843C71.1653 29.3923 71.3343 28.7987 71.3343 28.062C71.3343 27.334 71.1653 26.7403 70.8273 26.281C70.4893 25.813 70.0256 25.579 69.4363 25.579ZM69.4363 24.357C70.511 24.357 71.3473 24.7427 71.9453 25.514C72.4826 26.1987 72.7513 27.048 72.7513 28.062C72.7513 29.076 72.4826 29.9253 71.9453 30.61C71.3473 31.3813 70.511 31.767 69.4363 31.767C68.353 31.767 67.5123 31.3813 66.9143 30.61C66.3856 29.9427 66.1213 29.0933 66.1213 28.062C66.1213 27.0307 66.3856 26.1813 66.9143 25.514C67.5123 24.7427 68.353 24.357 69.4363 24.357Z" fill="#FB7185"/>
<path d="M77.1771 25.644C76.0764 25.644 75.5261 26.411 75.5261 27.945C75.5261 29.3663 76.0591 30.077 77.1251 30.077C77.6971 30.077 78.1304 29.8777 78.4251 29.479C78.6938 29.1063 78.8281 28.595 78.8281 27.945C78.8281 27.1303 78.6938 26.5453 78.4251 26.19C78.1651 25.826 77.7491 25.644 77.1771 25.644ZM80.1411 24.539V30.103C80.1411 32.3477 79.0491 33.47 76.8651 33.47C76.0591 33.47 75.3268 33.34 74.6681 33.08L74.7851 31.754C75.4264 32.0747 76.1241 32.235 76.8781 32.235C78.1174 32.235 78.7588 31.689 78.8021 30.597L78.8151 30.532C78.4338 31.0693 77.8704 31.338 77.1251 31.338C76.1111 31.338 75.3354 30.9653 74.7981 30.22C74.3474 29.6047 74.1221 28.8333 74.1221 27.906C74.1221 26.8053 74.3604 25.9517 74.8371 25.345C75.3484 24.7037 76.0851 24.383 77.0471 24.383C77.8358 24.383 78.4294 24.5823 78.8281 24.981V24.539H80.1411ZM87.9729 31.611H86.6209V27.256C86.6209 26.138 86.2136 25.579 85.3989 25.579C84.8442 25.579 84.4239 25.8 84.1379 26.242C83.9039 26.6233 83.7869 27.113 83.7869 27.711V31.611H82.4349V26.32C82.4349 25.982 82.4262 25.6657 82.4089 25.371C82.4002 25.0677 82.3872 24.7817 82.3699 24.513H83.6699V25.228C84.0946 24.6473 84.7229 24.357 85.5549 24.357C87.1669 24.357 87.9729 25.254 87.9729 27.048V31.611ZM91.5667 31.611H90.1757V24.331H91.5667V31.611ZM91.5667 23.083H90.1757V21.458H91.5667V23.083ZM96.9846 31.559C96.6553 31.6977 96.2826 31.767 95.8666 31.767C95.0433 31.767 94.5103 31.546 94.2676 31.104C94.0856 30.8093 93.9946 30.2417 93.9946 29.401V25.722H92.8766V24.435H93.9946V22.888L95.3986 22.433V24.435H96.7766V25.722H95.3986V29.765C95.3986 30.2677 95.6283 30.519 96.0876 30.519C96.391 30.519 96.6553 30.4627 96.8806 30.35L96.9846 31.559ZM99.6663 31.611H98.2753V24.331H99.6663V31.611ZM99.6663 23.083H98.2753V21.458H99.6663V23.083ZM105.435 31.624V30.935C105.011 31.4897 104.4 31.767 103.602 31.767C102.736 31.767 102.094 31.5243 101.678 31.039C101.384 30.6837 101.236 30.2503 101.236 29.739C101.236 27.971 102.536 27.087 105.136 27.087H105.331V26.853C105.331 26.0037 104.937 25.579 104.148 25.579C103.438 25.579 102.736 25.7653 102.042 26.138V24.864C102.701 24.526 103.429 24.357 104.226 24.357C105.058 24.357 105.665 24.552 106.046 24.942C106.454 25.3667 106.657 26.0253 106.657 26.918V29.947C106.657 30.7443 106.683 31.3033 106.735 31.624H105.435ZM105.331 28.296H105.058C104.382 28.296 103.862 28.3567 103.498 28.478C102.918 28.6687 102.627 29.0457 102.627 29.609C102.627 30.233 102.987 30.545 103.706 30.545C104.79 30.545 105.331 29.8863 105.331 28.569V28.296Z" fill="#E4E4E7"/>
</svg>
