<svg width="51" height="13" viewBox="0 0 51 13" fill="none" xmlns="http://www.w3.org/2000/svg">
<path d="M8.047 10.325C7.56167 10.5937 6.80333 10.728 5.772 10.728C4.29 10.728 3.107 10.2773 2.223 9.376C1.34767 8.45733 0.91 7.24833 0.91 5.749C0.91 4.267 1.35633 3.06667 2.249 2.148C3.14167 1.22933 4.316 0.77 5.772 0.77C6.82933 0.77 7.58767 0.887 8.047 1.121L7.943 2.447C7.35367 2.213 6.63 2.096 5.772 2.096C4.72333 2.096 3.887 2.434 3.263 3.11C2.639 3.786 2.327 4.66567 2.327 5.749C2.327 6.87567 2.63033 7.75967 3.237 8.401C3.85233 9.06833 4.69733 9.402 5.772 9.402C6.682 9.402 7.40567 9.259 7.943 8.973L8.047 10.325ZM13.4363 4.579C12.847 4.579 12.379 4.813 12.0323 5.281C11.703 5.74033 11.5383 6.334 11.5383 7.062C11.5383 7.79 11.703 8.38367 12.0323 8.843C12.379 9.311 12.847 9.545 13.4363 9.545C14.0256 9.545 14.4893 9.311 14.8273 8.843C15.1653 8.39233 15.3343 7.79867 15.3343 7.062C15.3343 6.334 15.1653 5.74033 14.8273 5.281C14.4893 4.813 14.0256 4.579 13.4363 4.579ZM13.4363 3.357C14.511 3.357 15.3473 3.74267 15.9453 4.514C16.4826 5.19867 16.7513 6.048 16.7513 7.062C16.7513 8.076 16.4826 8.92533 15.9453 9.61C15.3473 10.3813 14.511 10.767 13.4363 10.767C12.353 10.767 11.5123 10.3813 10.9143 9.61C10.3856 8.94267 10.1213 8.09333 10.1213 7.062C10.1213 6.03067 10.3856 5.18133 10.9143 4.514C11.5123 3.74267 12.353 3.357 13.4363 3.357Z" fill="#FB7185"/>
<path d="M21.1771 4.644C20.0764 4.644 19.5261 5.411 19.5261 6.945C19.5261 8.36633 20.0591 9.077 21.1251 9.077C21.6971 9.077 22.1304 8.87767 22.4251 8.479C22.6938 8.10633 22.8281 7.595 22.8281 6.945C22.8281 6.13033 22.6938 5.54533 22.4251 5.19C22.1651 4.826 21.7491 4.644 21.1771 4.644ZM24.1411 3.539V9.103C24.1411 11.3477 23.0491 12.47 20.8651 12.47C20.0591 12.47 19.3268 12.34 18.6681 12.08L18.7851 10.754C19.4264 11.0747 20.1241 11.235 20.8781 11.235C22.1174 11.235 22.7588 10.689 22.8021 9.597L22.8151 9.532C22.4338 10.0693 21.8704 10.338 21.1251 10.338C20.1111 10.338 19.3354 9.96533 18.7981 9.22C18.3474 8.60467 18.1221 7.83333 18.1221 6.906C18.1221 5.80533 18.3604 4.95167 18.8371 4.345C19.3484 3.70367 20.0851 3.383 21.0471 3.383C21.8358 3.383 22.4294 3.58233 22.8281 3.981V3.539H24.1411ZM31.9729 10.611H30.6209V6.256C30.6209 5.138 30.2136 4.579 29.3989 4.579C28.8442 4.579 28.4239 4.8 28.1379 5.242C27.9039 5.62333 27.7869 6.113 27.7869 6.711V10.611H26.4349V5.32C26.4349 4.982 26.4262 4.66567 26.4089 4.371C26.4002 4.06767 26.3872 3.78167 26.3699 3.513H27.6699V4.228C28.0946 3.64733 28.7229 3.357 29.5549 3.357C31.1669 3.357 31.9729 4.254 31.9729 6.048V10.611ZM35.5667 10.611H34.1757V3.331H35.5667V10.611ZM35.5667 2.083H34.1757V0.458H35.5667V2.083ZM40.9846 10.559C40.6553 10.6977 40.2826 10.767 39.8666 10.767C39.0433 10.767 38.5103 10.546 38.2676 10.104C38.0856 9.80933 37.9946 9.24167 37.9946 8.401V4.722H36.8766V3.435H37.9946V1.888L39.3986 1.433V3.435H40.7766V4.722H39.3986V8.765C39.3986 9.26767 39.6283 9.519 40.0876 9.519C40.391 9.519 40.6553 9.46267 40.8806 9.35L40.9846 10.559ZM43.6663 10.611H42.2753V3.331H43.6663V10.611ZM43.6663 2.083H42.2753V0.458H43.6663V2.083ZM49.4352 10.624V9.935C49.0106 10.4897 48.3996 10.767 47.6022 10.767C46.7356 10.767 46.0942 10.5243 45.6782 10.039C45.3836 9.68367 45.2362 9.25033 45.2362 8.739C45.2362 6.971 46.5362 6.087 49.1362 6.087H49.3312V5.853C49.3312 5.00367 48.9369 4.579 48.1482 4.579C47.4376 4.579 46.7356 4.76533 46.0422 5.138V3.864C46.7009 3.526 47.4289 3.357 48.2262 3.357C49.0582 3.357 49.6649 3.552 50.0462 3.942C50.4536 4.36667 50.6572 5.02533 50.6572 5.918V8.947C50.6572 9.74433 50.6832 10.3033 50.7352 10.624H49.4352ZM49.3312 7.296H49.0582C48.3822 7.296 47.8622 7.35667 47.4982 7.478C46.9176 7.66867 46.6272 8.04567 46.6272 8.609C46.6272 9.233 46.9869 9.545 47.7062 9.545C48.7896 9.545 49.3312 8.88633 49.3312 7.569V7.296Z" fill="#E4E4E7"/>
</svg>
